<svg width="24" height="25" viewBox="0 0 24 25" fill="none" xmlns="http://www.w3.org/2000/svg">
<path d="M21.4286 0H2.57143C1.15179 0 0 1.19978 0 2.67857V22.3214C0 23.8002 1.15179 25 2.57143 25H21.4286C22.8482 25 24 23.8002 24 22.3214V2.67857C24 1.19978 22.8482 0 21.4286 0ZM18.8089 8.86161C18.8196 9.01786 18.8196 9.17969 18.8196 9.33594C18.8196 14.1741 15.2839 19.7489 8.82321 19.7489C6.83036 19.7489 4.98214 19.1462 3.42857 18.1083C3.7125 18.1417 3.98571 18.1529 4.275 18.1529C5.91964 18.1529 7.43036 17.5725 8.63571 16.5904C7.09286 16.5569 5.79643 15.5022 5.35179 14.0513C5.89286 14.135 6.38036 14.135 6.9375 13.9844C5.33036 13.644 4.125 12.1708 4.125 10.3906V10.346C4.59107 10.6194 5.1375 10.7868 5.71071 10.8092C5.2288 10.4752 4.83374 10.0223 4.56079 9.4906C4.28784 8.95895 4.14548 8.36518 4.14643 7.76228C4.14643 7.08147 4.31786 6.45647 4.62321 5.91518C6.35357 8.13616 8.95179 9.58705 11.8661 9.7433C11.3679 7.26005 13.1518 5.24554 15.2946 5.24554C16.3071 5.24554 17.2179 5.68638 17.8607 6.40067C18.6536 6.24442 19.4143 5.9375 20.0893 5.51897C19.8268 6.36719 19.275 7.08147 18.5464 7.53348C19.2536 7.45536 19.9393 7.24888 20.5714 6.96429C20.0946 7.69531 19.4946 8.34263 18.8089 8.86161Z" fill="white"/>
</svg>
