<svg width="26" height="26" viewBox="0 0 26 26" fill="none" xmlns="http://www.w3.org/2000/svg">
<path d="M12.9999 8.83423C10.7062 8.83423 8.83428 10.7061 8.83428 12.9999C8.83428 15.2936 10.7062 17.1655 12.9999 17.1655C15.2937 17.1655 17.1655 15.2936 17.1655 12.9999C17.1655 10.7061 15.2937 8.83423 12.9999 8.83423ZM25.4937 12.9999C25.4937 11.2749 25.5093 9.56548 25.4124 7.84361C25.3155 5.84361 24.8593 4.0686 23.3968 2.60611C21.9312 1.14048 20.1593 0.687355 18.1593 0.59048C16.4343 0.493605 14.7249 0.50923 13.003 0.50923C11.278 0.50923 9.56865 0.493605 7.84678 0.59048C5.84678 0.687355 4.07178 1.14361 2.60928 2.60611C1.14365 4.07173 0.690529 5.84361 0.593654 7.84361C0.496779 9.56861 0.512404 11.278 0.512404 12.9999C0.512404 14.7217 0.496779 16.4342 0.593654 18.1561C0.690529 20.1561 1.14678 21.9311 2.60928 23.3936C4.0749 24.8592 5.84678 25.3124 7.84678 25.4092C9.57178 25.5061 11.2812 25.4905 13.003 25.4905C14.728 25.4905 16.4374 25.5061 18.1593 25.4092C20.1593 25.3124 21.9343 24.8561 23.3968 23.3936C24.8624 21.928 25.3155 20.1561 25.4124 18.1561C25.5124 16.4342 25.4937 14.7249 25.4937 12.9999ZM12.9999 19.4092C9.45303 19.4092 6.59053 16.5467 6.59053 12.9999C6.59053 9.45298 9.45303 6.59048 12.9999 6.59048C16.5468 6.59048 19.4093 9.45298 19.4093 12.9999C19.4093 16.5467 16.5468 19.4092 12.9999 19.4092ZM19.6718 7.82485C18.8437 7.82485 18.1749 7.15611 18.1749 6.32798C18.1749 5.49986 18.8437 4.83111 19.6718 4.83111C20.4999 4.83111 21.1687 5.49986 21.1687 6.32798C21.1689 6.52462 21.1304 6.71938 21.0552 6.9011C20.9801 7.08282 20.8698 7.24793 20.7308 7.38698C20.5917 7.52603 20.4266 7.63628 20.2449 7.71142C20.0632 7.78655 19.8684 7.8251 19.6718 7.82485Z" fill="white"/>
</svg>
