<svg width="16" height="16" viewBox="0 0 16 16" fill="none" xmlns="http://www.w3.org/2000/svg">
<path d="M3.58196 16H0.264816V5.31771H3.58196V16ZM1.92139 3.86057C0.860816 3.86057 0.000244141 2.98171 0.000244141 1.92114C0.000244141 1.41162 0.20265 0.922974 0.562934 0.56269C0.923218 0.202406 1.41187 0 1.92139 0C2.43091 0 2.91956 0.202406 3.27984 0.56269C3.64012 0.922974 3.84253 1.41162 3.84253 1.92114C3.84253 2.98171 2.98196 3.86057 1.92139 3.86057ZM15.9968 16H12.6871V10.8C12.6871 9.56057 12.662 7.97143 10.9625 7.97143C9.23796 7.97143 8.97339 9.31771 8.97339 10.7109V16H5.65967V5.31771H8.84082V6.77486H8.8871C9.32996 5.93543 10.4117 5.04971 12.0254 5.04971C15.3825 5.04971 15.9997 7.26057 15.9997 10.132V16H15.9968Z" fill="white"/>
</svg>
