<svg width="24" height="24" viewBox="0 0 24 24" fill="none" xmlns="http://www.w3.org/2000/svg">
<path d="M19.5 0C20.7396 0 21.7995 0.440104 22.6797 1.32031C23.5599 2.20052 24 3.26042 24 4.5V19.5C24 20.7396 23.5599 21.7995 22.6797 22.6797C21.7995 23.5599 20.7396 24 19.5 24H8.17188C9.05729 22.7292 9.61979 21.6354 9.85938 20.7188C9.95312 20.3646 10.2292 19.276 10.6875 17.4531C10.9062 17.8594 11.2891 18.2083 11.8359 18.5C12.3828 18.7917 12.9688 18.9375 13.5938 18.9375C15.4792 18.9375 17.0182 18.1693 18.2109 16.6328C19.4036 15.0964 20 13.151 20 10.7969C20 9.92188 19.8177 9.07552 19.4531 8.25781C19.0885 7.4401 18.5859 6.71615 17.9453 6.08594C17.3047 5.45573 16.5104 4.95052 15.5625 4.57031C14.6146 4.1901 13.5885 4 12.4844 4C11.401 4 10.388 4.14844 9.44531 4.44531C8.5026 4.74219 7.70573 5.14062 7.05469 5.64062C6.40365 6.14062 5.84375 6.71094 5.375 7.35156C4.90625 7.99219 4.5599 8.65885 4.33594 9.35156C4.11198 10.0443 4 10.7344 4 11.4219C4 12.4844 4.20573 13.4219 4.61719 14.2344C5.02865 15.0469 5.63542 15.6198 6.4375 15.9531C6.57292 16.0052 6.69531 16.0052 6.80469 15.9531C6.91406 15.901 6.98958 15.8021 7.03125 15.6562C7.13542 15.1979 7.21354 14.8802 7.26562 14.7031C7.32812 14.4635 7.27083 14.2448 7.09375 14.0469C6.57292 13.401 6.3125 12.6198 6.3125 11.7031C6.3125 10.1406 6.85156 8.80469 7.92969 7.69531C9.00781 6.58594 10.4167 6.03125 12.1562 6.03125C13.7083 6.03125 14.9193 6.45312 15.7891 7.29688C16.6589 8.14062 17.0938 9.23438 17.0938 10.5781C17.0938 12.3281 16.7422 13.8177 16.0391 15.0469C15.3359 16.276 14.4323 16.8906 13.3281 16.8906C12.7031 16.8906 12.1979 16.6641 11.8125 16.2109C11.4271 15.7578 11.3073 15.2188 11.4531 14.5938C11.5365 14.2396 11.6745 13.7578 11.8672 13.1484C12.0599 12.5391 12.2135 12.0078 12.3281 11.5547C12.4427 11.1016 12.5 10.7135 12.5 10.3906C12.5 9.88021 12.362 9.45573 12.0859 9.11719C11.8099 8.77865 11.4167 8.60938 10.9062 8.60938C10.2708 8.60938 9.73177 8.90365 9.28906 9.49219C8.84635 10.0807 8.625 10.8073 8.625 11.6719C8.625 12.4219 8.75 13.0521 9 13.5625L7.46875 20.0312C7.21875 21.0729 7.18229 22.3958 7.35938 24H4.5C3.26042 24 2.20052 23.5599 1.32031 22.6797C0.440104 21.7995 0 20.7396 0 19.5V4.5C0 3.26042 0.440104 2.20052 1.32031 1.32031C2.20052 0.440104 3.26042 0 4.5 0H19.5Z" fill="white"/>
</svg>
